<svg width="24" height="24" viewBox="0 0 24 24" fill="none" xmlns="http://www.w3.org/2000/svg">
<g clip-path="url(#clip0_2326_84463)">
<path d="M1.5 4.24194C2.8275 3.68694 4.731 3.08844 6.582 2.90244C8.577 2.70144 10.269 2.99694 11.25 4.03044V18.6494C9.8475 17.8544 8.07 17.7449 6.4305 17.9099C4.6605 18.0899 2.8755 18.6014 1.5 19.1264V4.24194ZM12.75 4.03044C13.731 2.99694 15.423 2.70144 17.418 2.90244C19.269 3.08844 21.1725 3.68694 22.5 4.24194V19.1264C21.123 18.6014 19.3395 18.0884 17.5695 17.9114C15.9285 17.7449 14.1525 17.8529 12.75 18.6494V4.03044ZM12 2.67444C10.5225 1.40394 8.3805 1.21494 6.4305 1.40994C4.1595 1.63944 1.8675 2.41794 0.4395 3.06744C0.308474 3.12704 0.197363 3.22307 0.119432 3.34409C0.0415 3.46511 3.98571e-05 3.606 0 3.74994L0 20.2499C3.4743e-05 20.3754 0.0315557 20.4989 0.0916756 20.6091C0.151796 20.7192 0.238593 20.8125 0.344116 20.8804C0.44964 20.9483 0.570517 20.9887 0.695675 20.9978C0.820833 21.0069 0.946271 20.9844 1.0605 20.9324C2.3835 20.3324 4.515 19.6109 6.5805 19.4024C8.694 19.1894 10.4655 19.5329 11.415 20.7179C11.4853 20.8055 11.5743 20.8762 11.6756 20.9248C11.7768 20.9734 11.8877 20.9986 12 20.9986C12.1123 20.9986 12.2232 20.9734 12.3244 20.9248C12.4257 20.8762 12.5147 20.8055 12.585 20.7179C13.5345 19.5329 15.306 19.1894 17.418 19.4024C19.485 19.6109 21.618 20.3324 22.9395 20.9324C23.0537 20.9844 23.1792 21.0069 23.3043 20.9978C23.4295 20.9887 23.5504 20.9483 23.6559 20.8804C23.7614 20.8125 23.8482 20.7192 23.9083 20.6091C23.9684 20.4989 24 20.3754 24 20.2499V3.74994C24 3.606 23.9585 3.46511 23.8806 3.34409C23.8026 3.22307 23.6915 3.12704 23.5605 3.06744C22.1325 2.41794 19.8405 1.63944 17.5695 1.40994C15.6195 1.21344 13.4775 1.40394 12 2.67444Z" fill="black"/>
</g>
<defs>
<clipPath id="clip0_2326_84463">
<rect width="24" height="24" fill="white"/>
</clipPath>
</defs>
</svg>
