<svg width="24" height="24" viewBox="0 0 24 24" fill="none" xmlns="http://www.w3.org/2000/svg">
<path fill-rule="evenodd" clip-rule="evenodd" d="M3 12C3 10.8181 3.23279 9.64778 3.68508 8.55585C3.74393 8.41378 3.80642 8.27321 3.87249 8.1343C4.30258 7.22999 4.88443 6.39563 5.60172 5.67055C5.61312 5.65902 5.62456 5.64751 5.63604 5.63604C5.64751 5.62456 5.65902 5.61312 5.67055 5.60172C6.50701 4.77424 7.48891 4.12702 8.55585 3.68508C9.64778 3.23279 10.8181 3 12 3C13.0443 3 14.0699 3.18149 15.0346 3.52701C15.1724 3.57637 15.3089 3.62908 15.4442 3.68508C15.5118 3.71309 15.579 3.74191 15.6459 3.77156C15.7735 3.82806 15.8997 3.88754 16.0245 3.94995C16.882 4.37862 17.6733 4.94541 18.364 5.63604C18.9969 6.26897 19.5258 6.98648 19.9397 7.76199C20.0777 8.02049 20.2029 8.28544 20.3149 8.55585C20.4242 8.81969 20.5209 9.08873 20.6047 9.36206C20.8215 10.0692 20.9518 10.805 20.9889 11.5537C20.9963 11.702 21 11.8508 21 12V19.5C21 19.8978 20.842 20.2794 20.5607 20.5607C20.2794 20.842 19.8978 21 19.5 21H17.5C17.1022 21 16.7206 20.842 16.4393 20.5607C16.158 20.2794 16 19.8978 16 19.5V15C16 14.6022 16.158 14.2206 16.4393 13.9393C16.7206 13.658 17.1022 13.5 17.5 13.5H19.5V12C19.5 11.829 19.4941 11.6582 19.4825 11.488C19.4439 10.9233 19.3414 10.365 19.1773 9.82371C19.1061 9.58893 19.0233 9.35736 18.9291 9.12987C18.8612 8.96589 18.7875 8.8046 18.7084 8.64629C18.3484 7.92616 17.8742 7.26763 17.3033 6.6967C16.6939 6.08731 15.9847 5.58818 15.2074 5.22041C15.0963 5.16787 14.9839 5.11802 14.8701 5.0709C14.6893 4.99599 14.5058 4.92829 14.3202 4.86792C13.6305 4.64352 12.9111 4.52015 12.1845 4.50227C12.1231 4.50076 12.0616 4.5 12 4.5C11.8888 4.5 11.7777 4.50247 11.6668 4.5074C10.9184 4.54068 10.1793 4.6859 9.47406 4.93816C9.35838 4.97953 9.24362 5.02379 9.12987 5.0709C9.00175 5.12398 8.87527 5.18053 8.75057 5.24047C8.00184 5.6004 7.31729 6.08263 6.72546 6.6681C6.71585 6.6776 6.70626 6.68714 6.6967 6.6967C6.65909 6.7343 6.62191 6.77229 6.58515 6.81064C6.02621 7.39387 5.56548 8.06324 5.22041 8.79264C5.16787 8.90369 5.11802 9.01613 5.0709 9.12987C5.0179 9.25783 4.96851 9.38709 4.92278 9.51748C4.6636 10.2564 4.52156 11.0317 4.50227 11.8155C4.50076 11.8769 4.5 11.9384 4.5 12V13.5H6.5C6.89782 13.5 7.27936 13.658 7.56066 13.9393C7.84196 14.2206 8 14.6022 8 15V19.5C8 19.8978 7.84196 20.2794 7.56066 20.5607C7.27936 20.842 6.89782 21 6.5 21H4.5C4.10218 21 3.72064 20.842 3.43934 20.5607C3.15804 20.2794 3 19.8978 3 19.5V12ZM4.7 15C4.58954 15 4.5 15.0895 4.5 15.2V19.3C4.5 19.4105 4.58954 19.5 4.7 19.5H6.3C6.41046 19.5 6.5 19.4105 6.5 19.3V15.2C6.5 15.0895 6.41046 15 6.3 15H4.7ZM19.5 15.2C19.5 15.0895 19.4105 15 19.3 15H17.7C17.5895 15 17.5 15.0895 17.5 15.2V19.3C17.5 19.4105 17.5895 19.5 17.7 19.5H19.3C19.4105 19.5 19.5 19.4105 19.5 19.3V15.2Z" fill="black"/>
</svg>
