<svg width="24" height="24" viewBox="0 0 24 24" fill="none" xmlns="http://www.w3.org/2000/svg">
<g clip-path="url(#clip0_2335_84835)">
<path d="M18.219 0.219364C18.2886 0.149519 18.3714 0.094105 18.4625 0.0562953C18.5536 0.0184856 18.6513 -0.000976563 18.75 -0.000976562C18.8486 -0.000976562 18.9463 0.0184856 19.0374 0.0562953C19.1285 0.094105 19.2113 0.149519 19.281 0.219364L23.781 4.71936C23.8508 4.78903 23.9062 4.8718 23.944 4.96291C23.9818 5.05403 24.0013 5.15171 24.0013 5.25036C24.0013 5.34902 23.9818 5.4467 23.944 5.53781C23.9062 5.62893 23.8508 5.7117 23.781 5.78136L8.78095 20.7814C8.70898 20.8528 8.62325 20.909 8.52895 20.9464L1.02895 23.9464C0.892657 24.0009 0.743347 24.0143 0.599533 23.9848C0.455718 23.9553 0.323724 23.8842 0.219914 23.7804C0.116105 23.6766 0.0450444 23.5446 0.0155432 23.4008C-0.013958 23.257 -0.000602752 23.1077 0.0539532 22.9714L3.05395 15.4714C3.09135 15.3771 3.14748 15.2913 3.21895 15.2194L18.219 0.219364ZM16.8105 3.75036L20.25 7.18986L22.1895 5.25036L18.75 1.81086L16.8105 3.75036ZM19.1895 8.25036L15.75 4.81086L5.99995 14.5609V15.0004C7.5 16.5 7.5 16.5 8.99995 18.0004H9.43945L19.1895 8.25036ZM4.54795 16.0129L4.38895 16.1719L2.09695 21.9034L7.82845 19.6114L7.98745 19.4524C7 18.5 5.5 17 4.54795 16.0129Z" fill="black"/>
</g>
<defs>
<clipPath id="clip0_2335_84835">
<rect width="24" height="24" fill="white"/>
</clipPath>
</defs>
</svg>
